Patient4_TMGait_0pt7_01_right_15_EMG.mot
version=1
nRows=33
nColumns=33
inDegrees=no
endheader
time	1LAddLong	2LGlutMax	3LGlutMed	4LIliopsoas	5LSemiMemb	6LBicFemLong	7LRecFem	8LVastMed	9LVastLat	10LGasMed	11LTibAnt	12lTibPost	13LPeroneusLong	14LSol	15LExtDigLong	16LFlexDigLong	17RAddLong	18RGlutMax	19RGlutMed	20RIliopsoas	21RSemiMemb	22RBicFemLong	23RRecFem	24RVastMed	25RVastLat	26RGasMed	27RTibAnt	28RTibPost	29RPeroneusLong	30RSol	31RExtDigLong	32RFlexDigLong
17.425	-0.011749	-0.090637	-0.059204	0.011139	0.089874	-0.22964	0.071564	0.039978	-0.12192	-0.024261	0.041809	0.008392	-0.80872	-0.072174	-0.009918	0.002289	-0.017242	0.084686	-0.15717	0.09491	0.023041	0.093384	-0.44983	-0.007477	0.002594	-0.028381	0.4422	0.001068	-0.19073	0.095978	-0.001678	-0.004578
17.426	0.00946	-0.097961	-0.15762	-0.009918	0.14771	-0.23163	-0.07309	-0.002289	-0.10361	-0.011902	-0.21332	0.003967	-0.22537	-0.041504	-0.14297	-0.001678	0.006409	0.040436	-0.20935	0.032501	0.046692	0.11734	-0.44525	0.013275	-0.002136	-0.027466	0.45975	-0.000458	-0.98114	0.092773	-0.001221	0.00061
17.427	0.029144	-0.078278	-0.20142	-0.002899	0.09552	-0.70404	-0.057831	-0.029449	-0.1355	-0.038757	-0.091553	0.002136	0.41367	-0.009766	-0.052338	-0.011139	0.021667	-0.00885	-0.18082	-0.039063	0.046997	0.10651	-0.41824	-0.000458	-0.015411	-0.01709	0.47897	0.001068	-0.42114	0.047607	-0.003662	0.000458
17.428	0.012665	-0.09964	-0.067596	-0.009918	0.009308	-0.73166	0.015411	-0.031281	-0.17761	-0.001373	-0.03006	0.001526	0.21454	-0.14069	-0.087585	-0.010834	0.020294	0.008698	-0.18127	-0.10422	0.058136	0.050049	-0.39764	-0.022278	-0.010834	-0.011444	0.10574	0.000305	0.54108	-0.034332	-0.007935	0.005493
17.429	0.015717	-0.12894	-0.032501	0.00885	-0.029297	-0.50217	0.13138	-0.010681	-0.39017	0.054932	-0.019073	0.006866	0.13825	-0.2623	-0.072327	-0.014496	0.03067	0.010986	-0.26504	-0.1535	0.046997	0.024109	-0.41397	0.018158	-0.001068	-0.005951	-0.64148	0.002747	0.73852	-0.049438	-0.003662	0.016937
17.43	0.011749	-0.12116	-0.037842	-0.012512	0.062256	-0.54382	0.14923	0.027618	-0.35065	0.066376	0.019684	-0.005646	0.13031	-0.28519	0.03418	0.006561	0.031281	0.019684	-0.04425	-0.13245	0.070801	-0.01709	-0.47745	0.039673	-0.00061	-0.005341	-0.77225	-0.006714	1.4392	-0.048065	-0.003204	0.014496
17.431	-0.000458	-0.028076	-0.081024	-0.002747	0.15137	-0.47043	0.056915	0.039825	-0.082397	0.06546	0.061798	0.003357	0.010376	-0.13962	0.075989	0.014954	0.043793	0.004272	0.007629	0.028992	0.077515	0.008087	-0.43869	0.016632	-0.014954	-0.005493	-0.2594	-0.002594	0.47943	-0.042572	-0.004272	0.007019
17.432	-0.005493	-0.025635	-0.12558	0.014038	0.075073	-0.21881	0.062561	0.022888	0.02243	0.020447	0.089111	0.013733	0.001221	-0.067444	0.08728	0.010529	0.060577	0.015564	0.047302	0.1091	0.093079	0.000763	-0.42328	0.007477	-0.017242	-0.008392	0.02533	-0.001678	-1.9901	-0.076752	-0.003662	0.008392
17.433	-0.003967	-0.027313	-0.075073	0.007172	-0.0177	-0.092316	0.040741	0.011292	-0.069275	-0.006561	0.037231	0.007324	0.21118	-0.024719	0.051727	0.001831	0.075684	0.06134	0.00061	0.13763	0.085449	-0.018005	-0.42313	0.044556	-0.013275	0.007935	0.22278	0.002441	-1.825	-0.12497	0.000458	0.010986
17.434	0.00946	-0.035706	-0.041504	0.001373	0.016785	-0.01358	0.059204	-0.015106	0.012512	-0.035858	0.027161	0.013428	-0.001984	-0.056763	0.093994	0.006714	0.07431	0.012665	-0.32562	0.072327	0.072174	-0.037537	-0.41046	0.084686	-0.003967	0.006866	-0.12238	0.009918	-0.24536	-0.20172	-0.00061	0.006104
17.435	0.011749	-0.025482	0.013885	0.005188	-0.028687	0.090027	0.031891	-0.011292	0.10315	-0.066833	-0.12207	0.012054	-0.13107	-0.027161	0.36758	0.011139	0.072479	-0.002136	-0.27664	0.036316	0.040131	-0.080719	-0.4129	0.072479	0.005798	0.005646	-0.14191	0.003357	-0.30853	-0.17425	-0.001221	0.009613
17.436	-0.003662	-0.097504	0.05661	-0.011902	-0.047302	0.080719	-0.13489	-0.017548	0.13947	-0.054016	-0.08194	0.01358	-0.069122	0.03006	0.75409	0.012054	0.039063	-0.033417	-0.36362	-0.064697	0.010223	-0.1355	-0.43442	0.049438	0.010834	0.001678	-0.00061	-0.005341	0.50278	-0.012665	-0.00351	0.000153
17.437	-0.010986	-0.11749	0.12833	0.009308	-0.011902	-0.049133	-0.27222	-0.017242	0.17929	-0.018463	-0.000458	0.017395	-0.029755	0.007019	0.52445	0.000916	0.019989	-0.065918	-0.4837	0.06897	-0.005646	-0.18951	-0.45151	0.025024	0.023651	-0.002747	0.024109	-0.00412	0.42374	0.074005	0.001068	-0.001984
17.438	-0.002441	-0.079346	0.078125	0.006409	0.028381	-0.35904	-0.15366	-0.009613	0.18585	-0.019989	-0.072784	0.028229	-0.008545	0.065308	0.006866	0.001831	-0.029297	-0.036316	-0.48202	0.15259	0.012054	-0.13001	-0.41763	0.054779	0.034637	-0.000763	0.087433	-0.002594	-0.17014	0.044861	-0.001221	0.001984
17.439	-0.004425	-0.099945	0.13351	-0.013123	-0.007019	-0.24109	-0.08316	0.028076	0.18143	-0.005035	-0.027618	0.025177	0.003815	0.14984	-0.13687	0.009155	-0.024872	-0.03952	-0.41992	0.12131	0.067596	0.031738	-0.40115	0.05127	0.0383	0.004272	0.12177	-0.002136	-0.31021	0.001373	-0.002899	0.003967
17.44	-0.02182	-0.19882	0.17258	-0.018311	-0.035706	0.00946	-0.038757	0.052032	0.13641	-0.013885	0.1532	0.024567	-0.033417	0.20447	-0.57068	0.010529	-0.028839	-0.083923	-0.2214	0.12955	0.10254	0.02533	-0.35889	-0.028839	0.045624	0.001221	0.053101	-0.001068	0.48782	-0.015106	-0.001526	-0.002289
17.441	-0.001068	-0.22461	0.11627	0.000305	-0.054169	0.16388	-0.20248	0.019073	0.019989	0.000153	0.30106	0.024719	-0.088959	0.16922	-0.44601	0.017395	-0.029907	-0.016785	-0.13001	0.073853	0.15518	0.00885	-0.40359	-0.015411	0.046844	0.002136	0.031738	-0.000153	0.25131	-0.001984	-0.007477	-0.000305
17.442	0.013885	-0.17792	0.040741	0.007477	-0.079956	0.13062	-0.24002	0.017853	0.058899	0.004272	0.25436	0.032196	-0.095825	0.092773	-0.28595	0.034637	-0.005493	-0.01297	-0.177	-0.033569	0.1532	0.088196	-0.4158	0.032806	0.041504	0.013123	0.097351	-0.003357	-0.014648	-0.04776	-0.009003	-0.008392
17.443	0.07019	-0.19928	-0.041199	0.006866	0.065613	-0.049896	-0.11871	0.01358	0.049133	-0.020905	0.049591	0.030823	-0.055847	0.05188	-0.092926	0.039215	-0.01358	-0.027313	-0.271	-0.062561	0.15182	0.24689	-0.39871	0.004883	0.048218	-0.00061	0.039215	-0.006256	0.074921	0.010071	-0.003204	-0.010681
17.444	0.084686	-0.17929	-0.029907	-0.001373	0.23499	0.30685	-0.086212	0.007019	-0.005798	-0.019836	-0.24353	0.032043	-0.043182	-0.001984	0.47241	0.04303	0.007782	-0.097504	-0.42816	-0.053558	0.15533	0.28839	-0.4042	-0.018158	0.023346	-0.001831	0.002289	-0.008545	0.35049	0.17227	-0.002136	-0.010376
17.445	0.083771	-0.13825	-0.001221	0.012207	0.15121	0.41245	-0.067444	0.018463	-0.021667	0.019531	-0.26474	0.039368	0.096283	-0.002747	-0.3305	0.03067	0.014801	-0.042114	-0.15243	-0.14664	0.14725	0.29144	-0.35584	-0.012054	0.000458	-0.009003	-0.002441	-0.005951	0.092621	0.14862	-0.000916	0.000305
17.446	0.054016	-0.10635	0.075531	0.016327	0.057068	0.22171	-0.034027	0.029755	-0.076141	0.027161	-0.15701	0.028534	-0.005951	0.07782	-0.058746	0.043182	0.054626	-0.045319	0.15182	-0.31632	0.11551	0.13382	-0.33096	-0.046234	-0.006104	0.002747	0.019684	-0.003357	-0.32059	0.010681	-0.00412	-0.00473
17.447	0.020599	-0.12772	0.10559	0.016327	-0.060883	-0.099335	0.016327	0.031586	-0.10254	0.000916	-0.004272	0.038452	0.045013	0.15671	0.14114	0.028534	0.034637	0.00473	0.12436	-0.27222	0.10529	0.005341	-0.29343	-0.050354	-0.021515	-0.005798	0.031433	-0.003204	-0.2803	-0.055695	-0.004578	0.002899
17.448	-0.013733	-0.10605	0.24414	0.011749	-0.10574	-0.29465	0.085297	0.04837	-0.12283	-0.012512	0.16434	0.031128	0.011292	0.1239	-0.20645	0.034027	0.001831	0.006256	-0.08255	-0.094757	0.09201	-0.066833	-0.22827	-0.050812	-0.06424	-0.011597	-0.015106	-0.008087	-0.10239	-0.010681	-0.003204	-0.00061
17.449	-0.037994	-0.08316	0.23621	-0.007629	-0.097198	-0.33218	0.026703	0.085297	-0.18158	-0.028839	0.045776	0.031891	0.041656	0.097046	-0.078583	0.028839	0.003204	-0.045319	-0.12985	0.1062	0.078278	-0.13809	-0.28122	-0.086517	-0.051727	-0.008698	0.006104	-0.004425	-0.072784	0.018768	0.002899	-0.011292
17.45	-0.026703	-0.007172	0.15869	-0.015106	-0.039215	-0.26611	-0.10574	0.074921	-0.035706	0.004883	-0.18158	0.039368	0.083313	-0.015259	0.1738	0.021973	-0.048065	-0.061188	-0.66727	0.21835	0.075684	-0.1178	-0.24384	-0.1265	-0.10452	-0.001831	0.009308	-0.002289	-0.025635	0.056763	-0.00885	-0.000458
17.451	0.009766	0.058441	0.041656	0.019226	-0.13092	-0.14069	-0.18524	0.035553	0.14908	-0.040894	-0.2533	0.031128	0.98587	-0.042419	0.068512	0.035095	-0.069733	-0.021515	-0.34714	0.24658	0.069733	-0.027313	-0.25421	-0.085907	-0.11993	0.003662	-0.07309	-0.002899	0.1001	0.031433	-0.004883	-0.001068
17.452	0.073395	0.075531	0.00412	0.0177	0.025635	0.10971	-0.21316	-0.025177	0.18524	-0.066071	-0.42801	0.030975	0.70404	-0.021057	-0.2214	0.016174	-0.085602	-0.03891	-0.48187	0.14435	0.063171	0.010376	-0.1944	-0.080719	-0.097504	0.007935	-0.021362	-0.005798	0.095367	-0.025177	0	0.000153
17.453	0.009766	0.17258	0.10117	0.009308	0.15274	0.45761	-0.27069	-0.037842	0.11368	-0.029602	-0.1503	0.028229	0.036774	0.035706	-0.17868	-0.011749	-0.098267	-0.026093	-0.35996	-0.052032	0.085754	0.066986	-0.26352	-0.11673	-0.12543	0.00824	0.089417	-0.005493	-0.042419	-0.039825	-0.010986	-0.009155
17.454	0.029449	0.16327	0.019684	0.001373	0.12955	0.62988	-0.18662	-0.031738	0.1265	-0.041962	0.020905	0.029602	-0.53436	0.15106	-0.12955	-0.036316	-0.09613	-0.061951	-0.40939	-0.018768	0.091248	0.08667	-0.23102	-0.16769	-0.12726	0.005493	0.12299	-0.001984	-0.067902	-0.1001	-0.001678	-0.006104
17.455	0.017395	0.18784	-0.098419	0.001678	0.11993	0.80841	-0.073853	-0.015411	0.23789	-0.027313	0.017242	0.02655	-0.16235	0.08606	-0.24506	-0.027008	-0.092621	-0.02655	0.39322	0.094299	0.073242	0.033112	-0.25299	-0.13077	-0.10056	0.011902	0.11017	-0.009918	0.12421	-0.1384	-0.007629	-0.013123
17.456	0.016174	0.2179	-0.17303	-0.007935	0.098267	0.62256	0.011139	-0.009155	0.12604	0.021362	0.099335	0.012817	-0.028076	-0.10666	-0.47974	-0.066528	-0.10346	-0.074921	0.21439	0.18631	0.08606	-0.005035	-0.23285	-0.12177	-0.10788	0.014801	0.1001	-0.014343	0.34683	-0.10681	0.00061	-0.018921
17.457	0.010986	0.26428	-0.18433	0.004883	0.043793	0.25223	0.10208	-0.014954	-0.14374	0.01709	0.055237	0.000916	-0.098877	-0.16266	-0.24963	-0.092468	-0.063171	-0.076599	-0.39154	0.19226	0.062866	0	-0.26428	-0.11673	-0.089111	0.002136	0.09201	-0.002136	0.35111	-0.098572	0	-0.019684
